<svg xmlns="http://www.w3.org/2000/svg" xmlns:xlink="http://www.w3.org/1999/xlink" width="500" zoomAndPan="magnify" viewBox="0 0 375 374.999991" height="500" preserveAspectRatio="xMidYMid meet" version="1.0"><defs><clipPath id="1b6e1411fa"><path d="M 65.726562 158 L 171 158 L 171 293 L 65.726562 293 Z M 65.726562 158 " clip-rule="nonzero"/></clipPath><clipPath id="4db81d78ab"><path d="M 160 158.257812 L 309.320312 158.257812 L 309.320312 293 L 160 293 Z M 160 158.257812 " clip-rule="nonzero"/></clipPath><clipPath id="ce5dd9981d"><path d="M 65.726562 50.324219 L 309.320312 50.324219 L 309.320312 171 L 65.726562 171 Z M 65.726562 50.324219 " clip-rule="nonzero"/></clipPath><clipPath id="17079bdbef"><path d="M 154.035156 260.304688 L 220.757812 260.304688 L 220.757812 324.597656 L 154.035156 324.597656 Z M 154.035156 260.304688 " clip-rule="nonzero"/></clipPath></defs><path fill="#0160fe" d="M 212.539062 162.222656 L 194.574219 275.167969 M 162.214844 162.222656 L 180.183594 275.167969 M 262.207031 162.222656 L 209.71875 283.679688 M 306.070312 161.203125 L 207.304688 290.410156 " fill-opacity="1" fill-rule="nonzero"/><path fill="#0160fe" d="M 166.125 283.101562 L 111.0625 162.796875 M 167.496094 290.410156 L 68.730469 161.203125 " fill-opacity="1" fill-rule="nonzero"/><g clip-path="url(#1b6e1411fa)"><path fill="#000000" d="M 169.558594 281.53125 L 114.503906 161.21875 L 107.621094 164.367188 L 162.683594 284.675781 Z M 164.5 292.707031 L 65.726562 163.5 L 71.734375 158.902344 L 170.507812 288.109375 L 164.5 292.707031 " fill-opacity="1" fill-rule="nonzero"/></g><g clip-path="url(#4db81d78ab)"><path fill="#000000" d="M 214.304688 162.359375 L 206.792969 161.460938 L 193.308594 275.03125 L 200.828125 275.921875 Z M 182.085938 275.007812 L 168.332031 161.46875 L 160.820312 162.382812 L 174.574219 275.914062 Z M 267.375 164.46875 L 260.503906 161.292969 L 205.066406 281.433594 L 211.933594 284.605469 Z M 210.5625 292.707031 L 204.554688 288.109375 L 303.320312 158.902344 L 309.328125 163.5 L 210.5625 292.707031 " fill-opacity="1" fill-rule="nonzero"/></g><g clip-path="url(#ce5dd9981d)"><path fill="#0160fe" d="M 65.726562 163.53125 C 70.316406 100.25 123.074219 50.324219 187.527344 50.324219 C 251.980469 50.324219 304.746094 100.25 309.328125 163.53125 C 304.078125 159.4375 297.484375 156.976562 290.304688 156.976562 C 279.617188 156.976562 270.1875 162.382812 264.605469 170.609375 C 259.027344 162.382812 249.605469 156.976562 238.917969 156.976562 C 228.226562 156.976562 218.804688 162.382812 213.222656 170.609375 C 207.640625 162.382812 198.222656 156.976562 187.527344 156.976562 C 176.839844 156.976562 167.414062 162.382812 161.832031 170.609375 C 156.257812 162.382812 146.828125 156.976562 136.144531 156.976562 C 125.449219 156.976562 116.027344 162.382812 110.449219 170.609375 C 104.867188 162.382812 95.445312 156.976562 84.753906 156.976562 C 77.578125 156.976562 70.984375 159.4375 65.726562 163.53125 " fill-opacity="1" fill-rule="nonzero"/></g><g clip-path="url(#17079bdbef)"><path fill="#0160fe" d="M 220.558594 267.957031 L 220.558594 309.113281 C 220.558594 317.722656 213.582031 324.691406 204.976562 324.691406 L 170.082031 324.691406 C 161.480469 324.691406 154.503906 317.722656 154.503906 309.113281 L 154.503906 267.957031 C 154.503906 263.960938 157.746094 260.71875 161.738281 260.71875 L 213.316406 260.71875 C 217.316406 260.71875 220.558594 263.960938 220.558594 267.957031 " fill-opacity="1" fill-rule="nonzero"/></g><path fill="#ffffff" d="M 220.558594 289.121094 L 220.558594 296.320312 L 154.503906 296.320312 L 154.503906 289.121094 L 220.558594 289.121094 " fill-opacity="1" fill-rule="nonzero"/></svg>