<svg xmlns="http://www.w3.org/2000/svg" xmlns:xlink="http://www.w3.org/1999/xlink" width="500" zoomAndPan="magnify" viewBox="0 0 375 374.999991" height="500" preserveAspectRatio="xMidYMid meet" version="1.0"><path fill="#f44336" d="M 185.660156 191.996094 C 180.589844 183.824219 176.914062 177.050781 171.820312 164.296875 C 163.207031 142.75 224.203125 123.28125 199.472656 85.867188 C 210.191406 111.710938 160.996094 127.6875 156.425781 149.207031 C 152.246094 169.003906 185.632812 191.996094 185.660156 191.996094 Z M 185.660156 191.996094 " fill-opacity="1" fill-rule="nonzero"/><path fill="#f44336" d="M 186.816406 153.261719 C 185.84375 166.039062 198.136719 172.847656 198.492188 182.179688 C 198.777344 189.777344 191.144531 196.109375 191.144531 196.109375 C 191.144531 196.109375 204.996094 193.386719 209.316406 181.800781 C 214.117188 168.933594 200.003906 160.121094 201.457031 149.816406 C 202.8125 139.976562 232.082031 121.667969 232.082031 121.667969 C 232.082031 121.667969 189.015625 124.523438 186.816406 153.261719 Z M 186.816406 153.261719 " fill-opacity="1" fill-rule="nonzero"/><path fill="#1565c0" d="M 228.488281 192.792969 C 237.394531 190.792969 244.90625 196.464844 244.90625 203 C 244.90625 217.734375 224.488281 231.65625 224.488281 231.65625 C 224.488281 231.65625 256.097656 227.890625 256.097656 203.703125 C 256.097656 187.707031 240.574219 183.710938 228.488281 192.792969 Z M 228.488281 192.792969 " fill-opacity="1" fill-rule="nonzero"/><path fill="#1565c0" d="M 213.480469 204.675781 C 213.480469 204.675781 223.339844 197.652344 225.964844 195.019531 C 201.777344 200.152344 146.550781 200.84375 146.550781 196.382812 C 146.550781 192.277344 164.363281 188.066406 164.363281 188.066406 C 164.363281 188.066406 124.890625 187.496094 124.890625 199.140625 C 124.890625 211.277344 176.558594 212.148438 213.480469 204.675781 Z M 213.480469 204.675781 " fill-opacity="1" fill-rule="nonzero"/><path fill="#1565c0" d="M 207.417969 215.726562 C 184.523438 223.339844 142.347656 220.90625 154.839844 210.683594 C 148.757812 210.683594 139.738281 215.574219 139.738281 220.277344 C 139.738281 229.707031 185.347656 236.988281 219.109375 223.179688 Z M 207.417969 215.726562 " fill-opacity="1" fill-rule="nonzero"/><path fill="#1565c0" d="M 160.453125 231.8125 C 152.144531 231.8125 146.765625 237.167969 146.765625 241.066406 C 146.765625 253.207031 196.328125 254.433594 215.964844 242.109375 L 203.484375 233.820312 C 188.8125 240.269531 151.960938 241.15625 160.453125 231.8125 Z M 160.453125 231.8125 " fill-opacity="1" fill-rule="nonzero"/><path fill="#1565c0" d="M 249.800781 251.582031 C 249.800781 246.832031 244.445312 244.589844 242.523438 243.519531 C 253.839844 270.804688 129.195312 268.6875 129.195312 252.578125 C 129.195312 248.917969 138.371094 245.332031 146.851562 247.027344 L 139.640625 242.769531 C 122.742188 240.117188 111.265625 247.546875 111.265625 253.539062 C 111.265625 281.484375 249.800781 280.136719 249.800781 251.582031 Z M 249.800781 251.582031 " fill-opacity="1" fill-rule="nonzero"/><path fill="#1565c0" d="M 263.609375 261.597656 C 242.554688 282.390625 189.167969 289.96875 135.480469 277.121094 C 189.167969 299.988281 263.355469 287.109375 263.609375 261.597656 Z M 263.609375 261.597656 " fill-opacity="1" fill-rule="nonzero"/></svg>