<svg xmlns="http://www.w3.org/2000/svg" xmlns:xlink="http://www.w3.org/1999/xlink" width="500" zoomAndPan="magnify" viewBox="0 0 375 374.999991" height="500" preserveAspectRatio="xMidYMid meet" version="1.0"><path fill="#000000" d="M 249.5625 140.488281 L 249.574219 140.488281 L 249.574219 140.449219 Z M 249.5625 140.488281 " fill-opacity="1" fill-rule="nonzero"/><path fill="#f2bb30" d="M 274.320312 244.71875 C 291.03125 244.71875 297.210938 233.0625 303.019531 215.589844 C 309.039062 197.59375 308.777344 180.28125 303.019531 157.230469 C 298.875 140.628906 291.042969 128.101562 274.320312 128.101562 L 252.785156 128.101562 L 252.785156 153.589844 C 252.785156 173.359375 236.011719 190.019531 216.894531 190.019531 L 159.496094 190.019531 C 143.800781 190.019531 130.800781 203.453125 130.800781 219.199219 L 130.800781 273.910156 C 130.800781 289.488281 144.339844 298.625 159.496094 303.089844 C 177.652344 308.40625 195.125 309.367188 216.882812 303.089844 C 231.339844 298.894531 245.582031 290.449219 245.582031 273.910156 L 245.582031 252.03125 L 188.234375 252.03125 L 188.234375 244.730469 L 274.320312 244.730469 Z M 220.484375 266.597656 C 226.441406 266.597656 231.289062 271.492188 231.289062 277.511719 C 231.289062 283.589844 226.453125 288.472656 220.484375 288.472656 C 214.566406 288.472656 209.683594 283.527344 209.683594 277.511719 C 209.742188 271.433594 214.585938 266.597656 220.484375 266.597656 Z M 220.484375 266.597656 " fill-opacity="1" fill-rule="nonzero"/><path fill="#35668f" d="M 101.238281 244.730469 L 120.957031 244.730469 L 120.957031 218.5 C 120.957031 199.53125 137.347656 182.808594 156.847656 182.808594 L 214.234375 182.808594 C 230.195312 182.808594 242.933594 169.648438 242.933594 153.628906 L 242.933594 98.878906 C 242.933594 83.304688 229.824219 71.625 214.234375 69.007812 C 194.996094 65.828125 174.09375 66.007812 156.847656 69.070312 L 156.859375 69.058594 C 132.5625 73.351562 128.171875 82.320312 128.171875 98.921875 L 128.171875 120.796875 L 185.617188 120.796875 L 185.617188 128.109375 L 106.613281 128.109375 C 89.902344 128.109375 75.277344 138.160156 70.722656 157.242188 C 65.457031 179.117188 65.246094 192.757812 70.722656 215.601562 C 74.796875 232.582031 84.535156 244.730469 101.238281 244.730469 Z M 153.257812 106.183594 C 147.300781 106.183594 142.453125 101.289062 142.453125 95.269531 C 142.523438 89.191406 147.300781 84.304688 153.257812 84.304688 C 159.175781 84.304688 164.0625 89.242188 164.0625 95.269531 C 164.0625 101.296875 159.226562 106.183594 153.257812 106.183594 Z M 153.257812 106.183594 " fill-opacity="1" fill-rule="nonzero"/></svg>