<svg xmlns="http://www.w3.org/2000/svg" xmlns:xlink="http://www.w3.org/1999/xlink" width="500" zoomAndPan="magnify" viewBox="0 0 375 374.999991" height="500" preserveAspectRatio="xMidYMid meet" version="1.0"><defs><clipPath id="d3341e34df"><path d="M 65 79.570312 L 301 79.570312 L 301 288 L 65 288 Z M 65 79.570312 " clip-rule="nonzero"/></clipPath></defs><rect x="-37.5" width="450" fill="#ffffff" y="-37.499999" height="449.999989" fill-opacity="1"/><rect x="-37.5" width="450" fill="#e94e36" y="-37.499999" height="449.999989" fill-opacity="1"/><g clip-path="url(#d3341e34df)"><path fill="#ffffff" d="M 210.320312 79.324219 C 233.960938 111.042969 243.300781 148.769531 235.058594 182.671875 C 234.507812 185.398438 233.410156 188.691406 232.3125 191.414062 C 230.570312 190.445312 229.128906 189.550781 227.746094 188.582031 L 227.902344 188.691406 C 227.902344 188.691406 174.59375 155.882812 117.441406 98.46875 C 115.785156 96.832031 148.21875 144.386719 184.492188 182.125 C 167.457031 172.273438 119.085938 137.839844 88.851562 109.945312 C 92.152344 115.953125 97.101562 121.972656 102.042969 127.988281 C 127.332031 160.257812 160.3125 199.609375 199.890625 229.679688 C 171.859375 246.644531 132.828125 247.722656 93.25 229.679688 C 83.351562 225.316406 75.117188 219.847656 65.765625 213.28125 C 82.253906 238.980469 108.089844 262.503906 138.875 275.070312 C 175.699219 290.9375 213.074219 289.839844 240.007812 275.070312 L 240.566406 275.070312 C 241.664062 274.523438 242.761719 273.984375 243.859375 272.886719 C 257.054688 266.316406 282.890625 259.210938 297.179688 286.558594 C 301.023438 294.210938 308.167969 258.671875 281.242188 225.867188 L 281.234375 225.867188 C 281.78125 224.777344 281.78125 223.679688 282.332031 222.59375 C 295.523438 171.183594 264.1875 111.042969 210.320312 79.324219 Z M 210.320312 79.324219 " fill-opacity="1" fill-rule="nonzero"/></g></svg>